<svg width="54" height="42" viewBox="0 0 54 42" fill="none" xmlns="http://www.w3.org/2000/svg">
<g filter="url(#filter0_dd_4028_6175)">
<rect x="9.30425" y="1.13516" width="46.5" height="16.5" rx="8.25" transform="rotate(28 9.30425 1.13516)" fill="white"/>
<rect x="9.30425" y="1.13516" width="46.5" height="16.5" rx="8.25" transform="rotate(28 9.30425 1.13516)" fill="url(#paint0_linear_4028_6175)"/>
<rect x="9.30425" y="1.13516" width="46.5" height="16.5" rx="8.25" transform="rotate(28 9.30425 1.13516)" stroke="white" stroke-width="1.5"/>
<path d="M14.7336 14.3517L12.4132 13.118L11.1794 15.4383L9.95033 14.7848L12.8742 9.28583L14.1033 9.93934L12.9427 12.122L15.2631 13.3558L16.4237 11.1731L17.6527 11.8266L14.7288 17.3256L13.4998 16.6721L14.7336 14.3517ZM18.4344 19.4318C18.0459 19.2253 17.7195 18.9701 17.4551 18.6665C17.1907 18.3628 16.9988 18.0252 16.8793 17.6536C16.7705 17.2786 16.7394 16.877 16.786 16.4487C16.8395 16.0242 16.9884 15.5824 17.2325 15.1232C17.4766 14.6641 17.7597 14.2936 18.0817 14.0118C18.4108 13.7337 18.7592 13.5385 19.1271 13.426C19.5058 13.3102 19.893 13.2806 20.2889 13.337C20.6884 13.3864 21.0825 13.5143 21.471 13.7209C21.8595 13.9275 22.1859 14.1826 22.4503 14.4863C22.7184 14.7829 22.9104 15.1205 23.0262 15.4992C23.1457 15.8708 23.1822 16.2708 23.1357 16.699C23.0892 17.1273 22.9439 17.5711 22.6997 18.0302C22.4556 18.4893 22.169 18.8579 21.84 19.136C21.5109 19.414 21.157 19.611 20.7783 19.7267C20.4034 19.8354 20.0162 19.8651 19.6166 19.8157C19.217 19.7664 18.8229 19.6384 18.4344 19.4318ZM18.9809 18.4041C19.4047 18.6294 19.8332 18.667 20.2665 18.5168C20.7068 18.3704 21.094 17.9828 21.4283 17.3542C21.7588 16.7326 21.8617 16.1983 21.7368 15.7514C21.6229 15.3012 21.354 14.9634 20.9302 14.7381C20.5134 14.5165 20.083 14.4824 19.639 14.6359C19.2057 14.7861 18.8239 15.172 18.4934 15.7936C18.1591 16.4223 18.0508 16.9582 18.1686 17.4013C18.2934 17.8482 18.5642 18.1825 18.9809 18.4041ZM25.1872 15.8328L27.4334 17.0271C28.8249 17.767 29.2766 18.5961 28.7883 19.5143C28.608 19.8534 28.37 20.0711 28.0741 20.1675C27.789 20.2605 27.4401 20.2607 27.0273 20.1681C27.4385 20.4683 27.6972 20.7825 27.8035 21.1109C27.9098 21.4392 27.8597 21.7976 27.6531 22.1861C27.5104 22.4545 27.3299 22.6576 27.1118 22.7953C26.8936 22.933 26.6483 23.0109 26.3758 23.0291C26.1104 23.0511 25.816 23.0169 25.4926 22.9265C25.1692 22.8361 24.8345 22.6989 24.4883 22.5148L22.2633 21.3318L25.1872 15.8328ZM25.9043 17.4236L25.2113 18.7269L26.1119 19.2057C26.4086 19.3635 26.6769 19.4382 26.9169 19.4299C27.1607 19.4145 27.3389 19.3009 27.4515 19.089C27.583 18.8417 27.5919 18.629 27.4783 18.4508C27.3754 18.2693 27.1722 18.0978 26.8684 17.9363L25.9043 17.4236ZM24.7494 19.5957L23.9832 21.0366L24.9262 21.538C25.2652 21.7183 25.5635 21.8135 25.8209 21.8235C26.0854 21.8373 26.289 21.71 26.4317 21.4415C26.5744 21.1731 26.5805 20.9317 26.4498 20.7173C26.3263 20.5066 26.0632 20.2942 25.6606 20.0802L24.7494 19.5957ZM30.3542 25.7697C29.9657 25.5631 29.6393 25.308 29.3749 25.0043C29.1105 24.7007 28.9186 24.363 28.799 23.9914C28.6903 23.6165 28.6592 23.2149 28.7058 22.7866C28.7593 22.3621 28.9082 21.9202 29.1523 21.4611C29.3964 21.002 29.6795 20.6315 30.0015 20.3497C30.3306 20.0716 30.679 19.8763 31.0469 19.7639C31.4256 19.6481 31.8128 19.6184 32.2086 19.6749C32.6082 19.7242 33.0023 19.8522 33.3908 20.0588C33.7793 20.2654 34.1057 20.5205 34.3701 20.8241C34.6382 21.1207 34.8302 21.4584 34.946 21.8371C35.0655 22.2087 35.102 22.6086 35.0555 23.0369C35.009 23.4652 34.8637 23.9089 34.6195 24.3681C34.3754 24.8272 34.0888 25.1958 33.7597 25.4738C33.4307 25.7519 33.0768 25.9488 32.6981 26.0646C32.3232 26.1733 31.936 26.203 31.5364 26.1536C31.1368 26.1042 30.7427 25.9763 30.3542 25.7697ZM30.9007 24.7419C31.3245 24.9673 31.753 25.0049 32.1863 24.8547C32.6265 24.7082 33.0138 24.3207 33.3481 23.692C33.6786 23.0704 33.7814 22.5362 33.6566 22.0893C33.5427 21.6391 33.2738 21.3013 32.8499 21.0759C32.4332 20.8543 32.0028 20.8203 31.5588 20.9738C31.1255 21.124 30.7437 21.5099 30.4132 22.1315C30.0789 22.7602 29.9706 23.2961 30.0884 23.7392C30.2132 24.1861 30.4839 24.5203 30.9007 24.7419ZM38.9956 29.712C38.8916 29.7201 38.7662 29.7259 38.6194 29.7294C38.4763 29.7258 38.3139 29.7075 38.1322 29.6743C37.9505 29.6411 37.7479 29.5877 37.5243 29.5141C37.3006 29.4405 37.0582 29.3342 36.7968 29.1953C35.7867 28.6582 35.1642 28.0056 34.9294 27.2374C34.7016 26.473 34.8281 25.6387 35.3088 24.7345C35.5454 24.2895 35.8247 23.9261 36.1467 23.6443C36.4687 23.3625 36.8136 23.1654 37.1815 23.0529C37.5531 22.9334 37.9387 22.8983 38.3383 22.9477C38.7417 22.99 39.1411 23.1163 39.5367 23.3266C39.9464 23.5444 40.278 23.8069 40.5315 24.1138C40.7922 24.4246 40.9571 24.7705 41.0263 25.1516C41.0955 25.5326 41.0637 25.9416 40.9311 26.3785C40.8056 26.8191 40.5631 27.2837 40.2037 27.7721L36.4 25.7496C36.1828 26.2774 36.1478 26.7436 36.2951 27.1481C36.4462 27.5456 36.822 27.9039 37.4224 28.2232C37.8603 28.456 38.2523 28.5965 38.5982 28.6445C38.955 28.6892 39.2677 28.706 39.5364 28.6949L38.9956 29.712ZM39.0184 24.3014C38.6581 24.1098 38.2962 24.0578 37.9325 24.1453C37.5689 24.2329 37.2336 24.4714 36.9268 24.861L39.5121 26.2356C39.7629 25.7981 39.8386 25.4171 39.7394 25.0925C39.6401 24.7679 39.3998 24.5042 39.0184 24.3014Z" fill="black" fill-opacity="0.85"/>
</g>
<defs>
<filter id="filter0_dd_4028_6175" x="-2.42578" y="-1.87915" width="58.418" height="46.8412" filterUnits="userSpaceOnUse" color-interpolation-filters="sRGB">
<feFlood flood-opacity="0" result="BackgroundImageFix"/>
<feColorMatrix in="SourceAlpha" type="matrix" values="0 0 0 0 0 0 0 0 0 0 0 0 0 0 0 0 0 0 127 0" result="hardAlpha"/>
<feOffset dx="1.5" dy="2"/>
<feGaussianBlur stdDeviation="2"/>
<feComposite in2="hardAlpha" operator="out"/>
<feColorMatrix type="matrix" values="0 0 0 0 0 0 0 0 0 0.0666667 0 0 0 0 0.188235 0 0 0 0.25 0"/>
<feBlend mode="normal" in2="BackgroundImageFix" result="effect1_dropShadow_4028_6175"/>
<feColorMatrix in="SourceAlpha" type="matrix" values="0 0 0 0 0 0 0 0 0 0 0 0 0 0 0 0 0 0 127 0" result="hardAlpha"/>
<feOffset dx="-0.5" dy="-1"/>
<feComposite in2="hardAlpha" operator="out"/>
<feColorMatrix type="matrix" values="0 0 0 0 0.0013947 0 0 0 0 0.0649527 0 0 0 0 0.18833 0 0 0 0.18 0"/>
<feBlend mode="normal" in2="effect1_dropShadow_4028_6175" result="effect2_dropShadow_4028_6175"/>
<feBlend mode="normal" in="SourceGraphic" in2="effect2_dropShadow_4028_6175" result="shape"/>
</filter>
<linearGradient id="paint0_linear_4028_6175" x1="9.39977" y1="0.324753" x2="46.5609" y2="24.2668" gradientUnits="userSpaceOnUse">
<stop stop-color="#B6D0F7"/>
<stop offset="0.229167" stop-color="#EEF4E1"/>
<stop offset="0.432292" stop-color="#E2C1F9"/>
<stop offset="0.581415" stop-color="#BFD1F9"/>
<stop offset="0.701803" stop-color="#FAFCFE"/>
<stop offset="0.802083" stop-color="#BAE4E2"/>
<stop offset="1" stop-color="#8C6BE3"/>
</linearGradient>
</defs>
</svg>
